<svg width="183" height="65" viewBox="0 0 183 65" fill="none" xmlns="http://www.w3.org/2000/svg">
<path d="M70.4023 35.4154C70.4023 36.5966 70.1976 37.6836 69.7883 38.6843C69.3789 39.6615 68.7885 40.5012 68.0132 41.2037C67.2614 41.9061 66.3522 42.4516 65.2816 42.8362C64.2111 43.2207 63.0185 43.413 61.696 43.413C60.3735 43.413 59.1809 43.2207 58.1104 42.8362C57.0398 42.4516 56.1188 41.9061 55.3473 41.2037C54.5956 40.5012 54.017 39.6615 53.6077 38.6843C53.1983 37.6876 52.9937 36.5966 52.9937 35.4154V25.75C52.9937 24.5689 53.1983 23.4936 53.6077 22.5165C54.017 21.5197 54.5956 20.6682 55.3473 19.9657C56.1227 19.2633 57.0437 18.7178 58.1104 18.3332C59.1809 17.9487 60.3735 17.7564 61.696 17.7564C63.0185 17.7564 64.2111 17.9487 65.2816 18.3332C66.3522 18.7178 67.2614 19.2633 68.0132 19.9657C68.7885 20.6682 69.3789 21.5197 69.7883 22.5165C70.1976 23.4936 70.4023 24.5689 70.4023 25.75V35.4154ZM78.3568 47.3608H73.6455V17.309H78.3568V27.6219H82.4541V32.1152H78.3568V47.3608ZM57.705 34.9014C57.705 36.2631 58.0356 37.3305 58.6929 38.0996C59.3541 38.8727 60.3538 39.2573 61.696 39.2573C63.0381 39.2573 64.0379 38.8727 64.6991 38.0996C65.3604 37.3265 65.691 36.2631 65.691 34.9014V26.2563C65.691 24.8946 65.3604 23.8272 64.6991 23.058C64.0379 22.2849 63.0381 21.9004 61.696 21.9004C60.3538 21.9004 59.3502 22.2849 58.6929 23.058C58.0316 23.8311 57.705 24.8946 57.705 26.2563V34.9014ZM111.226 36.4357H106.514V17.309H111.226V36.4357ZM110.746 47.4942C109.242 46.9056 107.719 46.2816 106.172 45.6224C104.625 44.9866 103.098 44.3195 101.598 43.6132C101.213 43.4326 100.859 43.2404 100.54 43.0363C100.245 42.8322 99.9375 42.6164 99.6187 42.3888C99.2999 42.6164 98.9811 42.8322 98.6623 43.0363C98.3671 43.2404 98.0246 43.4326 97.6389 43.6132C96.1354 44.3156 94.6122 44.9866 93.0654 45.6224C91.5186 46.2816 89.9953 46.9056 88.4918 47.4942L86.205 43.8172C87.6377 43.2717 89.1294 42.6831 90.6763 42.0474C92.2231 41.3881 93.6676 40.7328 95.0097 40.0735C95.8048 39.6654 96.3519 39.2219 96.6471 38.7471C96.9423 38.2487 97.0918 37.6483 97.0918 36.942V35.4115H102.142V36.942C102.142 37.6444 102.291 38.2448 102.586 38.7471C102.882 39.2219 103.429 39.6654 104.224 40.0735C105.566 40.7328 107.01 41.3881 108.557 42.0474C110.104 42.6831 111.596 43.2717 113.028 43.8172L110.742 47.4942H110.746ZM102.417 28.7796C101.984 29.7999 101.358 30.6985 100.54 31.4677C99.7446 32.2172 98.7646 32.8176 97.6035 33.2728C96.466 33.7045 95.179 33.9203 93.7463 33.9203C92.3136 33.9203 91.0148 33.7045 89.8537 33.2728C88.7162 32.8176 87.7361 32.2172 86.9174 31.4677C86.1224 30.6946 85.4966 29.7999 85.04 28.7796C84.6071 27.7593 84.3906 26.6801 84.3906 25.546C84.3906 24.4119 84.6071 23.3327 85.04 22.3124C85.4966 21.2921 86.1224 20.4052 86.9174 19.6596C87.7361 18.8866 88.7162 18.2862 89.8537 17.8545C91.0148 17.3993 92.3097 17.1756 93.7463 17.1756C95.1829 17.1756 96.466 17.4032 97.6035 17.8545C98.7646 18.2862 99.7446 18.8866 100.54 19.6596C101.358 20.4092 101.984 21.2921 102.417 22.3124C102.874 23.3327 103.098 24.4119 103.098 25.546C103.098 26.6801 102.87 27.7593 102.417 28.7796ZM97.1273 28.6422C97.9695 27.8495 98.3907 26.8174 98.3907 25.546C98.3907 24.2745 97.9695 23.2425 97.1273 22.4498C96.3086 21.6571 95.1829 21.2568 93.7463 21.2568C92.3097 21.2568 91.1761 21.6531 90.3338 22.4498C89.5152 23.2425 89.1058 24.2745 89.1058 25.546C89.1058 26.8174 89.5152 27.8495 90.3338 28.6422C91.1761 29.4349 92.3136 29.8352 93.7463 29.8352C95.179 29.8352 96.3046 29.4388 97.1273 28.6422ZM134.534 42.0827H116V18.2587H120.711V37.9309H134.534V42.0827ZM141.155 47.3608H136.443V17.309H141.155V27.6219H145.252V32.1152H141.155V47.3608ZM155.729 31.8051C154.659 31.8051 153.683 31.6364 152.793 31.295C151.927 30.9536 151.179 30.4787 150.542 29.8666C149.928 29.2308 149.448 28.4813 149.109 27.6219C148.767 26.739 148.597 25.75 148.597 24.663C148.597 23.576 148.767 22.5989 149.109 21.7356C149.452 20.8526 149.928 20.0913 150.542 19.4556C151.179 18.8199 151.931 18.3332 152.793 17.9918C153.679 17.6504 154.659 17.4817 155.729 17.4817H166.856C167.927 17.4817 168.891 17.6504 169.757 17.9918C170.643 18.3332 171.394 18.8199 172.008 19.4556C172.646 20.0913 173.134 20.8526 173.476 21.7356C173.819 22.5989 173.988 23.5721 173.988 24.663C173.988 25.754 173.819 26.739 173.476 27.6219C173.134 28.4852 172.646 29.2308 172.008 29.8666C171.394 30.4787 170.643 30.9575 169.757 31.295C168.891 31.6364 167.927 31.8051 166.856 31.8051H155.729ZM176.141 38.543H163.684V47.3569H158.906V38.543H146.448V34.3912H176.145V38.543H176.141ZM166.345 27.6533C167.254 27.6533 167.97 27.3708 168.494 26.8017C169.017 26.2327 169.277 25.5185 169.277 24.6591C169.277 23.7997 169.013 23.0816 168.494 22.5165C167.97 21.9278 167.254 21.6335 166.345 21.6335H156.241C155.784 21.6335 155.375 21.7238 155.013 21.9043C154.651 22.0613 154.34 22.2771 154.092 22.5518C153.84 22.8226 153.647 23.1404 153.513 23.5054C153.376 23.8703 153.309 24.2549 153.309 24.663C153.309 25.5264 153.568 26.2406 154.092 26.8057C154.615 27.3747 155.332 27.6572 156.241 27.6572H166.345V27.6533Z" fill="#18254C"/>
<path d="M42.9336 24.8373C41.802 24.8373 40.8823 25.7571 40.8823 26.8888C40.8823 28.0206 41.802 28.9404 42.9336 28.9404C44.0652 28.9404 44.9849 28.0206 44.9849 26.8888C44.9849 25.7571 44.0652 24.8373 42.9336 24.8373Z" fill="#18254C"/>
<path d="M35.9212 36.3792L32.5127 38.7804L37.0221 48.4533H41.5486L35.9212 36.3792Z" fill="#18254C"/>
<path d="M38.9266 27.17L26.4308 35.9664L26.4923 33.5311C26.5094 32.791 26.1265 32.0952 25.4872 31.72C24.8479 31.3414 24.0547 31.338 23.412 31.7098L19.1898 34.1587L24.7761 22.1732L29.2923 31.8667L32.6975 29.4689L26.6325 16.4534H22.9128L12.988 37.7502L12.9231 37.7878L12.9504 37.8355L8 48.4532H12.5231L16.1641 40.6392L22.2975 37.0851L22.2257 39.9331C22.2052 40.7074 22.6257 41.4236 23.3094 41.7886C23.6137 41.9489 23.9453 42.0308 24.277 42.0308C24.694 42.0308 25.1077 41.9046 25.4599 41.6556L41.2924 30.5126L38.9266 27.17Z" fill="#18254C"/>
</svg>
