<svg width="183" height="65" viewBox="0 0 183 65" fill="none" xmlns="http://www.w3.org/2000/svg">
<path d="M42.9331 24.8372C41.8015 24.8372 40.8818 25.7546 40.8818 26.8836C40.8818 28.0125 41.8015 28.93 42.9331 28.93C44.0646 28.93 44.9843 28.0125 44.9843 26.8836C44.9843 25.7546 44.0646 24.8372 42.9331 24.8372Z" fill="#80D6F7"/>
<path d="M35.9226 36.3799L32.5142 38.781L37.0234 48.4538H41.5498L35.9226 36.3799Z" fill="white"/>
<path d="M38.9255 27.1698L26.4302 35.966L26.4917 33.5307C26.5088 32.7906 26.1259 32.0948 25.4866 31.7197C24.8473 31.3411 24.0542 31.3377 23.4115 31.7094L19.1894 34.1583L24.7755 22.1731L29.2916 31.8663L32.6967 29.4686L26.6319 16.4534H22.9124L12.9879 37.7498L12.9229 37.7873L12.9503 37.835L8 48.4525H12.5229L16.1638 40.6386L22.297 37.0847L22.2252 39.9326C22.2047 40.7068 22.6252 41.4231 23.3089 41.788C23.6132 41.9483 23.9448 42.0302 24.2764 42.0302C24.6935 42.0302 25.1072 41.904 25.4593 41.655L41.2913 30.5123L38.9255 27.1698Z" fill="white"/>
<path d="M24.2783 42.0312C23.9467 42.0312 23.6151 41.9527 23.3108 41.789C22.6271 41.4241 22.2066 40.7044 22.2271 39.9336L22.2989 37.0857L14.9863 41.3252L12.9248 37.7849L23.4134 31.7036C24.0561 31.3318 24.8492 31.3352 25.4885 31.7138C26.1278 32.0924 26.5141 32.7848 26.4936 33.5249L26.4321 35.9601L38.9274 27.1639L41.2931 30.5064L25.4612 41.6492C25.109 41.8982 24.6954 42.0244 24.2783 42.0244V42.0312Z" fill="url(#paint0_linear_201_7864)"/>
<path d="M70.4001 35.4147C70.4001 36.5958 70.1954 37.6828 69.7861 38.6834C69.3768 39.6605 68.7864 40.5003 68.0111 41.2027C67.2593 41.9051 66.3502 42.4505 65.2796 42.8351C64.2091 43.2196 63.0166 43.4119 61.6942 43.4119C60.3717 43.4119 59.1792 43.2196 58.1087 42.8351C57.0382 42.4505 56.1172 41.9051 55.3458 41.2027C54.594 40.5003 54.0155 39.6605 53.6062 38.6834C53.1969 37.6867 52.9922 36.5958 52.9922 35.4147V25.7497C52.9922 24.5686 53.1969 23.4934 53.6062 22.5163C54.0155 21.5196 54.594 20.6681 55.3458 19.9657C56.1211 19.2633 57.0421 18.7178 58.1087 18.3333C59.1792 17.9487 60.3717 17.7564 61.6942 17.7564C63.0166 17.7564 64.2091 17.9487 65.2796 18.3333C66.3502 18.7178 67.2593 19.2633 68.0111 19.9657C68.7864 20.6681 69.3768 21.5196 69.7861 22.5163C70.1954 23.4934 70.4001 24.5686 70.4001 25.7497V35.4147ZM78.3542 47.3595H73.6431V17.3091H78.3542V27.6215H82.4514V32.1146H78.3542V47.3595ZM57.7033 34.9006C57.7033 36.2623 58.0339 37.3296 58.6912 38.0987C59.3524 38.8718 60.3521 39.2563 61.6942 39.2563C63.0363 39.2563 64.0359 38.8718 64.6971 38.0987C65.3584 37.3257 65.689 36.2623 65.689 34.9006V26.2559C65.689 24.8943 65.3584 23.8269 64.6971 23.0578C64.0359 22.2848 63.0363 21.9002 61.6942 21.9002C60.3521 21.9002 59.3484 22.2848 58.6912 23.0578C58.03 23.8309 57.7033 24.8943 57.7033 26.2559V34.9006ZM111.222 36.4349H106.511V17.3091H111.222V36.4349ZM110.742 47.4929C109.238 46.9043 107.715 46.2804 106.168 45.6212C104.622 44.9855 103.094 44.3184 101.595 43.6121C101.209 43.4315 100.855 43.2393 100.536 43.0352C100.241 42.8312 99.934 42.6153 99.6152 42.3877C99.2964 42.6153 98.9776 42.8312 98.6589 43.0352C98.3637 43.2393 98.0213 43.4315 97.6356 43.6121C96.1321 44.3145 94.609 44.9855 93.0622 45.6212C91.5154 46.2804 89.9923 46.9043 88.4888 47.4929L86.2022 43.8161C87.6348 43.2707 89.1264 42.682 90.6732 42.0463C92.2199 41.3871 93.6644 40.7318 95.0065 40.0725C95.8015 39.6644 96.3486 39.221 96.6437 38.7462C96.9389 38.2479 97.0885 37.6475 97.0885 36.9411V35.4108H102.138V36.9411C102.138 37.6436 102.288 38.2439 102.583 38.7462C102.878 39.221 103.425 39.6644 104.22 40.0725C105.562 40.7318 107.007 41.3871 108.553 42.0463C110.1 42.682 111.592 43.2707 113.024 43.8161L110.738 47.4929H110.742ZM102.414 28.7791C101.981 29.7994 101.355 30.698 100.536 31.4671C99.7412 32.2166 98.7612 32.817 97.6001 33.2722C96.4627 33.7038 95.1757 33.9196 93.7431 33.9196C92.3105 33.9196 91.0117 33.7038 89.8506 33.2722C88.7132 32.817 87.7332 32.2166 86.9145 31.4671C86.1195 30.694 85.4937 29.7994 85.0372 28.7791C84.6042 27.7588 84.3878 26.6797 84.3878 25.5457C84.3878 24.4116 84.6042 23.3325 85.0372 22.3123C85.4937 21.292 86.1195 20.4052 86.9145 19.6596C87.7332 18.8865 88.7132 18.2862 89.8506 17.8545C91.0117 17.3993 92.3065 17.1757 93.7431 17.1757C95.1796 17.1757 96.4627 17.4033 97.6001 17.8545C98.7612 18.2862 99.7412 18.8865 100.536 19.6596C101.355 20.4091 101.981 21.292 102.414 22.3123C102.87 23.3325 103.094 24.4116 103.094 25.5457C103.094 26.6797 102.866 27.7588 102.414 28.7791ZM97.1239 28.6418C97.9662 27.8491 98.3873 26.8171 98.3873 25.5457C98.3873 24.2743 97.9662 23.2423 97.1239 22.4496C96.3053 21.6569 95.1796 21.2567 93.7431 21.2567C92.3065 21.2567 91.173 21.653 90.3308 22.4496C89.5121 23.2423 89.1028 24.2743 89.1028 25.5457C89.1028 26.8171 89.5121 27.8491 90.3308 28.6418C91.173 29.4344 92.3105 29.8347 93.7431 29.8347C95.1757 29.8347 96.3013 29.4383 97.1239 28.6418ZM134.529 42.0817H115.996V18.2587H120.707V37.93H134.529V42.0817ZM141.149 47.3595H136.438V17.3091H141.149V27.6215H145.246V32.1146H141.149V47.3595ZM155.723 31.8046C154.653 31.8046 153.677 31.6358 152.787 31.2944C151.922 30.953 151.174 30.4782 150.536 29.8661C149.922 29.2304 149.442 28.4809 149.104 27.6215C148.761 26.7386 148.592 25.7497 148.592 24.6628C148.592 23.5758 148.761 22.5987 149.104 21.7354C149.446 20.8525 149.922 20.0912 150.536 19.4555C151.174 18.8198 151.925 18.3333 152.787 17.9919C153.673 17.6505 154.653 17.4817 155.723 17.4817H166.85C167.92 17.4817 168.885 17.6505 169.751 17.9919C170.636 18.3333 171.388 18.8198 172.002 19.4555C172.639 20.0912 173.127 20.8525 173.47 21.7354C173.812 22.5987 173.981 23.5719 173.981 24.6628C173.981 25.7537 173.812 26.7386 173.47 27.6215C173.127 28.4848 172.639 29.2304 172.002 29.8661C171.388 30.4782 170.636 30.957 169.751 31.2944C168.885 31.6358 167.92 31.8046 166.85 31.8046H155.723ZM176.134 38.5422H163.678V47.3556H158.9V38.5422H146.443V34.3905H176.138V38.5422H176.134ZM166.338 27.6529C167.247 27.6529 167.964 27.3704 168.487 26.8014C169.011 26.2324 169.27 25.5182 169.27 24.6588C169.27 23.7995 169.007 23.0814 168.487 22.5163C167.964 21.9277 167.247 21.6334 166.338 21.6334H156.235C155.779 21.6334 155.369 21.7236 155.007 21.9042C154.645 22.0611 154.334 22.2769 154.086 22.5516C153.834 22.8224 153.641 23.1402 153.508 23.5052C153.37 23.8701 153.303 24.2547 153.303 24.6628C153.303 25.5261 153.563 26.2402 154.086 26.8053C154.61 27.3743 155.326 27.6568 156.235 27.6568H166.338V27.6529Z" fill="white"/>
<defs>
<linearGradient id="paint0_linear_201_7864" x1="39.7581" y1="27.8631" x2="15.3534" y2="41.9852" gradientUnits="userSpaceOnUse">
<stop stop-color="#80D6F7"/>
<stop offset="1" stop-color="white" stop-opacity="0"/>
</linearGradient>
</defs>
</svg>
